<svg xmlns="http://www.w3.org/2000/svg" width="169.5" height="62.812" viewBox="0 0 169.5 62.812">
  <g id="vee_アートボード_1" data-name="vee_アートボード 1" transform="translate(-6.667 -2.559)">
    <g id="グループ_4" data-name="グループ 4" transform="translate(77.627 25.07)">
      <path id="パス_13" data-name="パス 13" d="M113.263,23.2h17.363l3.836-4.973h-32.24V37.342H121.49l3.794-4.916H108.176v-2.6h18.131l3.4-4.348H108.176V23.2Z" transform="translate(-35.923 -18.231)" fill="#1a1a1a"/>
      <path id="パス_14" data-name="パス 14" d="M108.456,32.426h-9.08v-2.6h14.365l3.41-4.348H99.376V23.2h17.207l3.836-4.973H86.105L75.249,32.923,68.372,23.2h5.769l3.822-4.973h-21.9L70.148,37.7h10L93.437,19.723V37.342h23.232l3.808-4.916H108.456Z" transform="translate(-56.067 -18.231)" fill="#1a1a1a"/>
    </g>
    <path id="パス_15" data-name="パス 15" d="M70.111,4.581l-2.8-1.62a2.978,2.978,0,0,0-4.078,1.094L59.17,11.1a3,3,0,0,1-2.586,1.492H9.651a2.984,2.984,0,0,0-2.984,2.984v3.24A2.984,2.984,0,0,0,9.651,21.8h7.843a2.978,2.978,0,0,1,2.586,1.492L43.511,63.875a2.981,2.981,0,0,0,4.078,1.094l2.8-1.62a2.981,2.981,0,0,0,1.094-4.078l-3.893-6.749a2.951,2.951,0,0,1,0-2.984L71.2,8.659A2.978,2.978,0,0,0,70.111,4.581ZM50.388,26.292l-6.38,11.055a2.987,2.987,0,0,1-5.172,0l-6.38-11.055a2.982,2.982,0,0,1,2.586-4.476H47.8a2.982,2.982,0,0,1,2.586,4.476Z" transform="translate(0 0)" fill="#1a1a1a"/>
  </g>
</svg>
